<svg version="1.2" xmlns="http://www.w3.org/2000/svg" viewBox="0 0 511 512.35" width="511" height="513">
	<style>
		.s0 { fill: #b6b6b6 } 
		.s1 { fill: #c30000 } 
	</style>
	<g id="Layer 1">
		<path fill-rule="evenodd" class="s0" d="m162.62 21.9q-8.24 8.16-15.42 19.71c-17.37 27.82-30.33 69.99-39.92 123.16-56.3 10.64-91.06 34.14-89.9 58.14 1.04 21.74 28.46 38.41 69.67 49.92-2.71 8.38-2.07 9.82 1.6 20.13-30.78 12.98-62.94 52.4-88.65 86.93l100.03 67.61-35.32 64.85h384.41l-37.26-64.85 99.14-68.87c-29.08-40.85-64.19-75.56-86.12-84.98 4.63-12.02 5.44-14.12 1.56-20.79 41.21-11.72 68.23-28.84 68.17-51.47-0.06-24.68-35.5-48.38-88.31-56.62-12.64-53.5-25.22-95.62-41.23-123.27q-4.36-7.54-9.09-13.62c-47.66-61.12-64.36-2.69-98.14-2.76-39.17-0.08-44.15-53.69-95.22-3.22zm206.37 256.73c20.89 70.63-68.53 106.5-101.95 27.98h-22.11c-34.12 78.28-122.14 44.17-102.16-28.94q-10.98-1.2-21.56-2.62l-0.32 1.88-0.59 3.56-3.48 20.87c-30.39-6.72-13.36 71.77 14.26 64.87 4.22 12.18 7.69 22.62 11.26 32.19 36.81 98.83 190.88 104.81 226.95 6.36 3.78-10.32 6.85-21.64 11.24-35.39 25.44 4.06 46.35-73.31 15.34-67.63l-3.19-21.05-0.55-3.65-0.23-1.54q-11.22 1.74-22.91 3.11zm-208.37 0.86c60.43 21.74 120.87 21.38 181.3 1.83-58.45 4.75-122.79 3.62-181.3-1.83zm69.12 140.78c-3.57 0-6.47-2.9-6.47-6.47 0-3.57 2.9-6.47 6.47-6.47h10.52c1.38 0 2.66 0.44 3.7 1.17 3.77 2.1 7.46 3.33 11.01 3.42 3.54 0.09 7.14-0.96 10.8-3.45q0.4-0.27 0.83-0.47 0.43-0.21 0.89-0.35 0.46-0.14 0.94-0.22 0.47-0.07 0.95-0.07l12.78-0.03c3.57 0 6.46 2.9 6.46 6.47 0 3.57-2.89 6.47-6.46 6.47h-10.95c-5.46 3.27-10.98 4.67-16.54 4.53-5.44-0.14-10.78-1.77-16.01-4.53zm-106.04-243.93l7.43-25.43c48.16 40.42 214.59 34.09 250.87 0l6.26 25.43c-42.31 44.75-219.33 38.67-264.56 0z"/>
		<path id="Forme 1" fill-rule="evenodd" class="s1" d="m502.58-39.05l48.47 48.47-542.63 542.63-48.47-48.47z"/>
	</g>
</svg>